<svg width="177" height="88" viewBox="0 0 177 88" fill="none" xmlns="http://www.w3.org/2000/svg">
<path d="M177 39.5779C176.246 44.6068 160.645 49.7213 157.825 44.0822C163.29 41.8057 167.556 37.9398 165.628 31.6161C164.606 29.0974 162.072 27.8198 159.453 28.8643C153.686 31.9817 153.455 40.9183 156.049 46.1123C160.544 54.1531 170.405 54.1811 176.978 49.1867C176.037 54.0764 173.735 57.6844 169.299 60.7998C159.569 67.6328 143.953 61.8618 140.674 50.4338C139.108 44.9755 139.603 40.9458 142.382 35.9935C149.033 24.1404 172.416 22.3856 177 39.5779Z" fill="#0B070F"/>
<path d="M76.7636 39.5779C76.0093 44.6068 60.4082 49.7213 57.5886 44.0822C63.0534 41.8057 67.3197 37.9398 65.3918 31.6161C64.3692 29.0974 61.8355 27.8198 59.2163 28.8643C53.4492 31.9817 53.2186 40.9183 55.8123 46.1123C60.3073 54.1531 70.1682 54.1811 76.7414 49.1867C75.801 54.0764 73.4985 57.6844 69.0625 60.7998C59.3331 67.6328 43.7169 61.8618 40.4377 50.4338C38.8714 44.9755 39.3671 40.9458 42.1458 35.9935C48.7963 24.1404 72.1798 22.3856 76.7636 39.5779Z" fill="#0B070F"/>
<path d="M138.509 24.2305C138.399 26.8326 138.138 29.3887 137.774 31.9673C136.36 42.1409 137.845 51.2084 139.524 61.2799C133.494 61.2799 127.465 61.2799 121.253 61.2799C121.253 60.2648 121.253 58.5847 122.014 55.9509C124.783 46.3704 123.513 38.4491 121.103 29.0098C120.999 28.5444 120.999 28.5444 120.999 28.0369C127.032 27.943 134.702 25.8799 138.509 24.2305Z" fill="#0B070F"/>
<path d="M140.142 14.6353C134.476 26.5262 109.498 20.4044 97.6558 18.3589C92.7508 17.5588 85.8528 17.9375 93.3388 22.5813C93.8738 22.9132 94.3539 23.2158 94.8613 23.7232C94.227 23.7232 90.2939 21.6994 88.5807 20.4243C79.033 13.3186 97.501 16.2891 100.191 16.8713C110.982 19.2075 135.463 21.7555 135.463 8.24368C132.665 12.356 129.254 16.6179 124.044 16.6179C122.148 16.6179 120.766 12.5867 120.88 9.7958C121.133 3.57876 126.336 -0.0701661 131.284 0.0252608C137.882 0.152497 143.718 7.13063 140.142 14.6353Z" fill="#0B070F"/>
<path fill-rule="evenodd" clip-rule="evenodd" d="M33.4829 23.1242C33.0076 35.9565 55.2774 22.9449 41.746 14.9721C33.4837 11.1282 25.3306 21.3156 25.3306 26.5181C16.3804 25.9921 5.446 27.3355 2.40383 37.3498C1.78924 40.4743 2.17355 43.2441 3.6657 46.0264C4.84945 48.1088 4.86916 50.0816 3.56707 52.1851C2.1967 54.2692 1.0613 56.2232 0.850519 58.7601C0.802373 64.646 4.88294 69.4673 10.9366 69.5099C11.7707 69.497 13.2035 69.3031 14.9686 69.0642C22.6122 68.0298 36.4879 66.1519 34.9737 74.4796C33.1246 80.4266 25.5672 77.6466 18.1601 74.9219C10.4643 72.091 2.93074 69.3198 2.13024 76.4581C2.37833 85.1155 11.4215 86.9931 18.6219 87.025C31.0772 87.1328 45.3338 77.1238 40.3028 63.314C36.4297 55.1607 29.625 56.202 22.6831 57.2644C17.711 58.0252 12.6685 58.7969 8.58237 56.2086C6.47907 54.1053 8.08303 51.3957 11.0556 52.5023C16.1249 54.4382 21.9819 54.8524 27.1071 52.9097C33.5569 50.6777 38.1699 46.1504 37.8524 38.9735C37.6128 35.7015 36.0753 33.0437 33.6811 30.8819C33.3682 30.5996 33.049 30.3396 32.7326 30.082C31.7078 29.2475 30.7137 28.4379 30.066 26.9783C28.5883 23.6481 33.5906 19.8257 33.4829 23.1242ZM19.8747 27.7862C17.8425 27.7862 16.1951 29.4336 16.1951 31.4658V48.7217C16.1951 50.7539 17.8425 52.4013 19.8747 52.4013C21.9068 52.4013 23.5542 50.7539 23.5542 48.7217V31.4658C23.5542 29.4336 21.9068 27.7862 19.8747 27.7862Z" fill="#0B070F"/>
<path d="M113.561 26.5829C117.376 30.2261 116.897 35.7386 116.94 40.5835C116.989 46.136 117.106 51.4558 118.232 56.9024C118.524 58.3763 118.74 59.7045 118.74 61.2163C112.878 61.2163 107.016 61.2163 100.976 61.2163C101.261 57.8036 101.261 57.8036 101.468 56.489C102.225 51.4989 102.65 46.6009 102.649 41.5451C102.662 26.3137 93.9928 33.3903 94.1191 45.5919C94.5638 79.3448 93.4022 27.8815 93.5937 32.4786C97.9535 26.8732 106.836 21.0947 113.561 26.5829Z" fill="#0B070F"/>
<path d="M95.1161 26.5152C95.0066 29.1174 94.7456 28.8821 94.3813 31.4607C92.9671 41.6342 94.3493 51.1445 96.0279 61.216C89.9984 61.216 83.969 61.216 77.7569 61.216C77.7569 60.2009 77.7569 58.5208 78.5182 55.887C81.2873 46.3065 80.1206 40.7339 77.7108 31.2946C77.6064 30.8292 77.6064 30.8292 77.6064 30.3216C83.6391 30.2277 91.3097 28.1647 95.1161 26.5152Z" fill="#0B070F"/>
</svg>
