<svg width="27" height="27" viewBox="0 0 27 27" fill="none" xmlns="http://www.w3.org/2000/svg">
<g clip-path="url(#clip0_237_1261)">
<path d="M20.5227 17.4921L10.8058 8.20899C9.73464 7.18562 7.96144 7.64144 7.51656 9.05452L3.48099 21.8728C3.0098 23.3695 4.36693 24.8011 5.88661 24.4104L19.639 20.8753C21.1587 20.4846 21.6572 18.576 20.5227 17.4921Z" stroke="#0B070F" stroke-width="2"/>
<line x1="5.80147" y1="13.5163" x2="14.5849" y2="22.2997" stroke="#0B070F" stroke-width="2"/>
<path d="M16.3177 6.92781C17.6784 6.92781 18.7816 5.82469 18.7816 4.46391C18.7816 3.10313 17.6784 2 16.3177 2C14.9569 2 13.8538 3.10313 13.8538 4.46391C13.8538 5.82469 14.9569 6.92781 16.3177 6.92781Z" stroke="#0B070F" stroke-width="2"/>
<path d="M18.7575 10.3196C23.6371 10.3196 25.2714 6.41589 25.2715 4.08821" stroke="#0B070F" stroke-width="2" stroke-linecap="round"/>
<path d="M25.0889 14.2232C25.0889 14.7555 24.6574 15.1871 24.125 15.1871C23.5927 15.1871 23.1611 14.7555 23.1611 14.2232C23.1611 13.6908 23.5927 13.2593 24.125 13.2593C24.6574 13.2593 25.0889 13.6908 25.0889 14.2232Z" fill="#0B070F" stroke="#0B070F"/>
</g>
<defs>
<clipPath id="clip0_237_1261">
<rect width="27" height="27" fill="white"/>
</clipPath>
</defs>
</svg>
