<svg width="27" height="27" viewBox="0 0 27 27" fill="none" xmlns="http://www.w3.org/2000/svg">
<path d="M4.5 12.375V16.875C4.5 20.5873 4.5 22.4434 5.65327 23.5968C6.80653 24.75 8.66269 24.75 12.375 24.75H14.625C18.3373 24.75 20.1934 24.75 21.3468 23.5968C22.5 22.4434 22.5 20.5873 22.5 16.875V12.375" stroke="#0B070F" stroke-width="2" stroke-linecap="round" stroke-linejoin="round"/>
<path d="M3.375 10.125C3.375 9.28385 3.375 8.86327 3.60108 8.55C3.74919 8.34478 3.96222 8.17435 4.21875 8.05587C4.61034 7.875 5.13605 7.875 6.1875 7.875H20.8125C21.8639 7.875 22.3896 7.875 22.7812 8.05587C23.0378 8.17435 23.2508 8.34478 23.3989 8.55C23.625 8.86327 23.625 9.28385 23.625 10.125C23.625 10.9662 23.625 11.3867 23.3989 11.7C23.2508 11.9052 23.0378 12.0756 22.7812 12.1941C22.3896 12.375 21.8639 12.375 20.8125 12.375H6.1875C5.13605 12.375 4.61034 12.375 4.21875 12.1941C3.96222 12.0756 3.74919 11.9052 3.60108 11.7C3.375 11.3867 3.375 10.9662 3.375 10.125Z" stroke="#0B070F" stroke-width="2" stroke-linejoin="round"/>
<path d="M6.75 4.25892C6.75 3.14943 7.64943 2.25 8.75892 2.25H9.16072C11.5572 2.25 13.5 4.19276 13.5 6.58928V7.875H10.3661C8.36896 7.875 6.75 6.25602 6.75 4.25892Z" stroke="#0B070F" stroke-width="2" stroke-linejoin="round"/>
<path d="M20.25 4.25892C20.25 3.14943 19.3506 2.25 18.2411 2.25H17.8392C15.4428 2.25 13.5 4.19276 13.5 6.58928V7.875H16.6339C18.631 7.875 20.25 6.25602 20.25 4.25892Z" stroke="#0B070F" stroke-width="2" stroke-linejoin="round"/>
<path d="M13.5 12.5034V24.0001" stroke="#0B070F" stroke-width="2" stroke-linecap="round" stroke-linejoin="round"/>
</svg>
