<svg width="27" height="27" viewBox="0 0 27 27" fill="none" xmlns="http://www.w3.org/2000/svg">
<path d="M18 14C18 16.7614 15.7614 19 13 19C10.2386 19 8 16.7614 8 14C8 11.2386 10.2386 9 13 9" stroke="#0B070F" stroke-width="2" stroke-linecap="round"/>
<path d="M15 4.20004C14.3538 4.06886 13.6849 4 13 4C7.47715 4 3 8.47715 3 14C3 19.5228 7.47715 24 13 24C18.5228 24 23 19.5228 23 14C23 13.3151 22.9311 12.6462 22.8 12" stroke="#0B070F" stroke-width="2" stroke-linecap="round"/>
<path d="M13.0303 13.9624L17.5832 9.40949M20.7404 6.34451L20.1872 4.35737C20.0853 4.03 19.6914 3.89954 19.4259 4.11651C17.9898 5.29007 16.4254 6.8708 17.703 9.36408C20.2771 10.5644 21.7466 8.94573 22.8733 7.58519C23.0975 7.31449 22.9623 6.90756 22.6247 6.80994L20.7404 6.34451Z" stroke="#0B070F" stroke-width="2" stroke-linecap="round" stroke-linejoin="round"/>
</svg>
