<svg width="27" height="27" viewBox="0 0 27 27" fill="none" xmlns="http://www.w3.org/2000/svg">
<path d="M4.31802 20.4321C4.58507 22.3209 6.2279 23.8005 8.2271 23.888C9.90932 23.9616 11.6182 24 13.5 24C15.3818 24 17.0906 23.9616 18.7729 23.888C20.7721 23.8005 22.4149 22.3209 22.682 20.4321C22.8563 19.1996 23 17.9364 23 16.65C23 15.3637 22.8563 14.1005 22.682 12.868C22.4149 10.9792 20.7721 9.49962 18.7729 9.4121C17.0906 9.33846 15.3818 9.30005 13.5 9.30005C11.6182 9.30005 9.90932 9.33846 8.2271 9.4121C6.2279 9.49962 4.58507 10.9792 4.31802 12.868C4.14373 14.1005 4 15.3637 4 16.65C4 17.9364 4.14373 19.1996 4.31802 20.4321Z" stroke="#0B070F" stroke-width="2"/>
<path d="M13.5 17.7001V15.6001" stroke="#0B070F" stroke-width="2.5" stroke-linecap="round"/>
<path d="M8.22217 8.72753V8.4C8.22217 5.41766 10.5851 3 13.4999 3C16.4148 3 18.7777 5.41766 18.7777 8.4V8.72753" stroke="#0B070F" stroke-width="2" stroke-linecap="round" stroke-linejoin="round"/>
</svg>
