<svg width="27" height="27" viewBox="0 0 27 27" fill="none" xmlns="http://www.w3.org/2000/svg">
<path d="M9.77094 17.4999C9.79195 19.8725 9.9268 21.1832 10.7922 22.0485C11.8173 23.0737 13.4672 23.0737 16.7671 23.0737C20.0669 23.0737 21.7168 23.0737 22.7419 22.0485C23.7671 21.0235 23.7671 19.3735 23.7671 16.0737C23.7671 12.7738 23.7671 11.1239 22.7419 10.0988C21.7581 9.11494 20.1987 9.07533 17.1577 9.07373" stroke="#0B070F" stroke-width="2"/>
<path d="M17.5273 18.8243L18.0848 17.9942L18.0848 17.9942L17.5273 18.8243ZM13.6335 16.0089C13.0861 15.9352 12.5827 16.3192 12.5089 16.8665C12.4352 17.4139 12.8192 17.9173 13.3665 17.9911L13.6335 16.0089ZM16.9697 19.6545C18.4157 20.6257 19.3934 21.9355 19.8071 23.3537L21.7271 22.7937C21.1672 20.8742 19.8727 19.195 18.0848 17.9942L16.9697 19.6545ZM13.3665 17.9911C14.7281 18.1744 15.6696 18.7813 16.9697 19.6545L18.0848 17.9942C16.8051 17.1347 15.511 16.2618 13.6335 16.0089L13.3665 17.9911Z" fill="#0B070F"/>
<path d="M17.417 7.68661C17.4105 7.6674 17.4041 7.64882 17.3979 7.63094L17.3982 7.63085L17.3953 7.62414C16.9848 6.66974 16.388 5.80684 15.6399 5.08596C14.8918 4.36508 14.0073 3.80071 13.0383 3.42591C12.0694 3.05111 11.0354 2.87341 9.99687 2.90321C8.95837 2.93302 7.93625 3.16972 6.99037 3.59947C6.04449 4.02922 5.19386 4.64338 4.4883 5.40597C3.78274 6.16857 3.23642 7.06428 2.88134 8.04064C2.52626 9.01701 2.36956 10.0544 2.42041 11.0921C2.47063 12.117 2.72231 13.1218 3.16093 14.0491L2.47111 16.3938C2.4711 16.3938 2.4711 16.3938 2.47109 16.3938C2.38769 16.6769 2.38211 16.9772 2.45496 17.2632C2.52781 17.5492 2.67639 17.8102 2.88507 18.0189C3.09375 18.2276 3.35482 18.3762 3.64081 18.449C3.92679 18.5219 4.22711 18.5163 4.51019 18.4329C4.5102 18.4329 4.51021 18.4329 4.51023 18.4329L6.85482 17.7431C7.61855 18.1054 8.43588 18.342 9.27523 18.4436C9.27615 18.4438 9.27708 18.4439 9.27801 18.4441L9.27795 18.4446L9.28112 18.4447C9.58294 18.4975 10.3362 18.5717 11.0331 18.4593C12.1015 18.3474 13.1352 18.0161 14.0696 17.4862C15.0049 16.9558 15.8204 16.2378 16.4651 15.3774C17.1097 14.5169 17.5696 13.5325 17.8159 12.486C18.0622 11.4394 18.0895 10.3532 17.8962 9.29557L17.8964 9.29553L17.8947 9.28891C17.7895 8.87513 17.564 8.11992 17.417 7.68661ZM6.9375 15.9394L6.93635 15.9394C6.85344 15.9396 6.77095 15.9513 6.69125 15.9741L6.6905 15.9744L4.19314 16.7108L4.92869 14.2115L4.92881 14.2111C4.99207 13.9928 4.96746 13.7583 4.86023 13.5579C4.17409 12.2747 3.97192 10.7877 4.29057 9.36789C4.60922 7.9481 5.42747 6.6901 6.59616 5.8232C7.76485 4.9563 9.20614 4.53824 10.6573 4.64522C12.1085 4.75221 13.4729 5.37712 14.5018 6.40604C15.5307 7.43496 16.1556 8.79936 16.2626 10.2505C16.3696 11.7017 15.9516 13.143 15.0847 14.3117C14.2178 15.4804 12.9597 16.2986 11.54 16.6173C10.1204 16.9359 8.63362 16.7338 7.35058 16.048C7.22403 15.9781 7.08207 15.9408 6.9375 15.9394Z" fill="#0B070F" stroke="black" stroke-width="0.2"/>
<path d="M20.7671 13.2581C20.7671 13.8103 20.3194 14.2581 19.7671 14.2581C19.2148 14.2581 18.7671 13.8103 18.7671 13.2581C18.7671 12.7058 19.2148 12.2581 19.7671 12.2581C20.3194 12.2581 20.7671 12.7058 20.7671 13.2581Z" fill="#0B070F"/>
</svg>
